<svg width="26" height="32" viewBox="0 0 26 32" fill="none" xmlns="http://www.w3.org/2000/svg">
<path d="M11.8268 0.184659C9.40769 1.16505 3.80329 3.53286 1.04458 4.1002C0.435012 4.22557 0 4.76593 0 5.38824V13.3683C0 19.626 2.81782 25.5511 7.67203 29.5004L9.17026 30.7192C11.2691 32.4269 14.2784 32.4269 16.3773 30.7192L17.8756 29.5004C22.7298 25.5511 25.5476 19.6258 25.5476 13.368V5.38824C25.5476 4.76593 25.1126 4.22557 24.503 4.1002C21.7443 3.53286 16.1399 1.16505 13.7208 0.184659C13.1133 -0.0615529 12.4344 -0.0615529 11.8268 0.184659Z" fill="url(#paint0_linear)"/>
<path d="M12.6241 26.2481C18.4916 26.2481 23.2481 21.4916 23.2481 15.6241C23.2481 9.75656 18.4916 5 12.6241 5C6.75656 5 2 9.75656 2 15.6241C2 21.4916 6.75656 26.2481 12.6241 26.2481Z" fill="url(#paint1_linear)"/>
<path d="M12.8711 15.5645C14.96 15.5645 16.6534 13.8711 16.6534 11.7823C16.6534 9.69338 14.96 8 12.8711 8C10.7822 8 9.08887 9.69338 9.08887 11.7823C9.08887 13.8711 10.7822 15.5645 12.8711 15.5645Z" fill="url(#paint2_linear)"/>
<path d="M17.8894 18.1771C18.9135 18.8342 19.0152 20.299 18.0873 21.0861C18.0766 21.0951 18.0659 21.1042 18.0552 21.1132C16.6533 22.2912 14.8451 23 12.8711 23C10.8776 23 9.0537 22.2769 7.64606 21.0784C7.64058 21.0737 7.63511 21.0691 7.62963 21.0644C6.70705 20.2755 6.81619 18.8128 7.83992 18.1606C9.28793 17.2383 11.0074 16.7041 12.8515 16.7041C14.7076 16.7041 16.4361 17.2447 17.8894 18.1771Z" fill="url(#paint3_linear)"/>
<defs>
<linearGradient id="paint0_linear" x1="1.29255" y1="1.93073" x2="24.925" y2="25.5631" gradientUnits="userSpaceOnUse">
<stop stop-color="#D80027"/>
<stop offset="1" stop-color="#880019"/>
</linearGradient>
<linearGradient id="paint1_linear" x1="10.1669" y1="13.566" x2="19.2293" y2="22.2062" gradientUnits="userSpaceOnUse">
<stop stop-color="#F95243"/>
<stop offset="1" stop-color="#DD0B31"/>
</linearGradient>
<linearGradient id="paint2_linear" x1="1.94621" y1="0.85734" x2="20.6045" y2="19.5157" gradientUnits="userSpaceOnUse">
<stop stop-color="#EBEFF0"/>
<stop offset="1" stop-color="#E3E5E4"/>
</linearGradient>
<linearGradient id="paint3_linear" x1="11.6705" y1="17.5589" x2="14.0046" y2="21.7508" gradientUnits="userSpaceOnUse">
<stop stop-color="#EBEFF0"/>
<stop offset="1" stop-color="#E3E5E4"/>
</linearGradient>
</defs>
</svg>
