<svg width="24" height="22" viewBox="0 0 24 22" fill="none" xmlns="http://www.w3.org/2000/svg">
<path d="M10.97 4.67188L8.36625 0.766156C8.23589 0.570641 8.01633 0.453125 7.78125 0.453125H0.703125C0.314812 0.453125 0 0.767844 0 1.15625V20.8438C0 21.2321 0.314812 21.5469 0.703125 21.5469H23.2969C23.6852 21.5469 24 21.2321 24 20.8438V4.67188H10.97ZM9.19162 12.8162C9.30562 12.5662 9.55556 12.4062 9.8302 12.4062H10.5938V8.1875C10.5938 7.79886 10.9082 7.48438 11.2969 7.48438H12.7031C13.0918 7.48438 13.4062 7.79886 13.4062 8.1875V12.4062H14.1698C14.4444 12.4062 14.6944 12.5662 14.8084 12.8162C14.9237 13.0661 14.8825 13.36 14.7026 13.568L12.5328 15.6891C12.2664 15.9995 11.7336 15.9995 11.4672 15.6891L9.29737 13.568C9.11747 13.36 9.07627 13.0661 9.19162 12.8162ZM16.9219 18.0312C16.9219 18.4199 16.6074 18.7344 16.2188 18.7344H7.78125C7.39261 18.7344 7.07812 18.4199 7.07812 18.0312V16.625C7.07812 16.2364 7.39261 15.9219 7.78125 15.9219C8.16989 15.9219 8.48438 16.2364 8.48438 16.625V17.3281H15.5156V16.625C15.5156 16.2364 15.8301 15.9219 16.2188 15.9219C16.6074 15.9219 16.9219 16.2364 16.9219 16.625V18.0312Z" fill="url(#paint0_linear)"/>
<defs>
<linearGradient id="paint0_linear" x1="12" y1="21.5469" x2="12" y2="0.453125" gradientUnits="userSpaceOnUse">
<stop stop-color="#0052CC"/>
<stop offset="1" stop-color="#2684FF"/>
</linearGradient>
</defs>
</svg>
