<svg width="10" height="12" viewBox="0 0 10 12" fill="none" xmlns="http://www.w3.org/2000/svg">
<path d="M1.70704 5.707L4.00004 3.414V11C4.00004 11.2652 4.1054 11.5196 4.29293 11.7071C4.48047 11.8946 4.73482 12 5.00004 12C5.26526 12 5.51961 11.8946 5.70715 11.7071C5.89468 11.5196 6.00004 11.2652 6.00004 11V3.414L8.29304 5.707C8.48164 5.88916 8.73425 5.98995 8.99644 5.98767C9.25864 5.9854 9.50945 5.88023 9.69486 5.69482C9.88027 5.50941 9.98544 5.2586 9.98771 4.9964C9.98999 4.7342 9.8892 4.4816 9.70704 4.293L5.70704 0.293C5.51951 0.105529 5.26521 0.000213623 5.00004 0.000213623C4.73488 0.000213623 4.48057 0.105529 4.29304 0.293L0.293041 4.293C0.110883 4.4816 0.0100885 4.7342 0.0123669 4.9964C0.0146453 5.2586 0.119814 5.50941 0.305222 5.69482C0.49063 5.88023 0.741443 5.9854 1.00364 5.98767C1.26584 5.98995 1.51844 5.88916 1.70704 5.707Z" fill="white"/>
</svg>
