<svg width="16" height="14" viewBox="0 0 16 14" fill="none" xmlns="http://www.w3.org/2000/svg">
<path d="M16 1.59874C15.412 1.87004 14.7787 2.05275 14.1147 2.1358C14.7933 1.71363 15.312 1.04645 15.5587 0.250538C14.924 0.64088 14.2213 0.924639 13.4733 1.0769C12.876 0.413873 12.0213 0 11.0787 0C8.95867 0 7.40133 2.05275 7.88 4.1844C5.15333 4.04183 2.73333 2.68533 1.11467 0.624269C0.254667 2.15518 0.669333 4.15949 2.13067 5.1741C1.59333 5.15611 1.088 5.00246 0.645333 4.74777C0.609333 6.32575 1.7 7.80268 3.27867 8.13211C2.81733 8.26223 2.31067 8.29268 1.796 8.19025C2.21333 9.54399 3.428 10.5281 4.86267 10.5558C3.48 11.6798 1.74267 12.1823 0 11.9691C1.45333 12.9366 3.17733 13.5 5.03067 13.5C11.1267 13.5 14.5693 8.15564 14.3613 3.3622C15.004 2.88327 15.56 2.28253 16 1.59874Z" fill="#1ea1f1"/>
</svg>
