<svg width="16" height="12" viewBox="0 0 16 12" fill="none" xmlns="http://www.w3.org/2000/svg">
<path d="M15.85 2.8001C15.85 2.8001 15.7 1.7001 15.2 1.2001C14.6 0.550098 13.9 0.550098 13.6 0.500098C11.35 0.350098 8 0.350098 8 0.350098C8 0.350098 4.65 0.350098 2.4 0.500098C2.1 0.550098 1.4 0.550098 0.8 1.2001C0.3 1.7001 0.15 2.8001 0.15 2.8001C0.15 2.8001 0 4.1001 0 5.4001V6.6001C0 7.9001 0.15 9.2001 0.15 9.2001C0.15 9.2001 0.3 10.3001 0.8 10.8001C1.4 11.4501 2.2 11.4001 2.55 11.5001C3.85 11.6001 8 11.6501 8 11.6501C8 11.6501 11.35 11.6501 13.6 11.5001C13.9 11.4501 14.6 11.4501 15.2 10.8001C15.7 10.3001 15.85 9.2001 15.85 9.2001C15.85 9.2001 16 7.9001 16 6.6001V5.4001C16 4.1001 15.85 2.8001 15.85 2.8001ZM6.35 8.1001V3.6001L10.65 5.8501L6.35 8.1001Z" fill="#f44336"/>
</svg>
